<svg width="13" height="18" viewBox="0 0 13 18" fill="none" xmlns="http://www.w3.org/2000/svg">
    <path d="M8.39767 18C7.13256 18 6.21279 17.6904 5.63134 17.0712C5.0534 16.452 4.76443 15.786 4.76443 15.0696C4.76443 14.8068 4.81377 14.5872 4.91597 14.4108C5.01464 14.2344 5.15912 14.0868 5.32827 13.9896C5.50447 13.8852 5.71944 13.8348 5.97316 13.8348C6.23041 13.8348 6.44538 13.8852 6.61805 13.9896C6.79425 14.094 6.93169 14.2344 7.03036 14.4108C7.13256 14.5908 7.18189 14.8104 7.18189 15.0696C7.18189 15.3864 7.10789 15.642 6.95988 15.8436C6.81187 16.0416 6.63567 16.1748 6.43481 16.236C6.61101 16.4844 6.88588 16.6572 7.26294 16.7616C7.64001 16.8732 8.01708 16.9272 8.39415 16.9272C8.91922 16.9272 9.39143 16.7832 9.81784 16.4952C10.2407 16.2072 10.5544 15.7788 10.7552 15.2172C10.9561 14.652 11.0583 14.0148 11.0583 13.2984C11.0583 12.5208 10.9455 11.8584 10.7235 11.3076C10.5085 10.7496 10.1879 10.3392 9.76498 10.0692C9.35267 9.8064 8.87693 9.666 8.39415 9.666C8.06994 9.666 7.6682 9.8028 7.18189 10.08L6.29385 10.5336V10.08L10.2901 4.6368H4.76443V10.2852C4.76443 10.7532 4.86663 11.1384 5.0675 11.4408C5.26837 11.7432 5.57848 11.8944 5.99783 11.8944C6.32204 11.8944 6.62863 11.7828 6.92464 11.5632C7.22418 11.34 7.48143 11.07 7.69287 10.7604C7.72106 10.6992 7.75278 10.6524 7.79507 10.6272C7.83031 10.5948 7.87964 10.5768 7.92545 10.5768C7.99946 10.5768 8.08756 10.6128 8.18623 10.692C8.28138 10.8 8.32719 10.9296 8.32719 11.0736C8.31662 11.1708 8.299 11.268 8.27785 11.3616C8.04879 11.8836 7.73163 12.2832 7.3299 12.5568C6.93521 12.8268 6.47357 12.9708 5.99783 12.9708C4.79967 12.9708 3.97154 12.7296 3.51342 12.2508C3.0553 11.7684 2.82624 11.1168 2.82624 10.2924V4.6404H0V3.5892H2.82624V1.1952L2.18135 0.5364V0H4.05964L4.76443 0.3708V3.5856L12.0697 3.5676L12.7956 4.3092L8.31662 8.8848C8.58796 8.7732 8.87341 8.7048 9.1659 8.6796C9.64869 8.6796 10.1949 8.838 10.801 9.1548C11.4142 9.4644 11.8829 9.8892 12.2142 10.4328C12.5454 10.9692 12.7568 11.484 12.8485 11.9808C12.9507 12.4776 13 12.9168 13 13.302C13 14.1804 12.8168 15.0012 12.4538 15.7572C12.0908 16.5132 11.5375 17.0748 10.7975 17.4492C10.0575 17.8128 9.25752 18 8.39767 18Z"
          fill="black"/>
</svg>